<?xml version="1.0" encoding="UTF-8" standalone="no"?>
<!DOCTYPE svg PUBLIC "-//W3C//DTD SVG 1.1//EN" "http://www.w3.org/Graphics/SVG/1.1/DTD/svg11.dtd">
<svg width="100%" height="100%" viewBox="0 0 846 846" version="1.1" xmlns="http://www.w3.org/2000/svg" xmlns:xlink="http://www.w3.org/1999/xlink" xml:space="preserve" xmlns:serif="http://www.serif.com/" style="fill-rule:evenodd;clip-rule:evenodd;stroke-linejoin:round;stroke-miterlimit:2;">
    <g transform="matrix(1,0,0,1,2524.37,-77.2532)">
        <g transform="matrix(1,0,0,1,-2601.63,5.68434e-14)">
            <rect x="77.253" y="77.253" width="845.494" height="845.494" style="fill:rgb(26,30,42);"/>
            <clipPath id="_clip1">
                <rect x="77.253" y="77.253" width="845.494" height="845.494"/>
            </clipPath>
            <g clip-path="url(#_clip1)">
                <g transform="matrix(0.691212,-0.484232,0.484232,0.691212,-18.0884,359.965)">
                    <g transform="matrix(0.577969,0,0,0.577969,98.541,306.378)">
                        <circle cx="314.684" cy="657.122" r="7.607" style="fill:rgb(49,57,75);"/>
                    </g>
                    <g transform="matrix(-0.577969,0,0,-0.577969,799.754,481.321)">
                        <circle cx="314.684" cy="657.122" r="7.607" style="fill:rgb(49,57,75);"/>
                    </g>
                    <g transform="matrix(0.121342,0.565088,-0.565088,0.121342,445.473,77.8382)">
                        <circle cx="314.684" cy="657.122" r="7.607" style="fill:rgb(49,57,75);"/>
                    </g>
                    <g transform="matrix(-0.121342,-0.565088,0.565088,-0.121342,452.823,709.86)">
                        <circle cx="314.684" cy="657.122" r="7.607" style="fill:rgb(49,57,75);"/>
                    </g>
                    <g transform="matrix(1.3292,0,0,1.3292,-10.3407,-237.449)">
                        <circle cx="314.684" cy="657.122" r="7.607" style="fill:rgb(49,57,75);"/>
                    </g>
                    <g transform="matrix(-1.3292,0,0,-1.3292,908.636,1025.15)">
                        <circle cx="314.684" cy="657.122" r="7.607" style="fill:rgb(49,57,75);"/>
                    </g>
                    <g transform="matrix(0.27906,1.29958,-1.29958,0.27906,954.32,-142.791)">
                        <circle cx="314.684" cy="657.122" r="7.607" style="fill:rgb(49,57,75);"/>
                    </g>
                    <g transform="matrix(0.27906,1.29958,-1.29958,0.27906,791.803,-123.02)">
                        <circle cx="314.684" cy="657.122" r="7.607" style="fill:rgb(49,57,75);"/>
                    </g>
                    <g transform="matrix(-0.27906,-1.29958,1.29958,-0.27906,-56.0248,930.49)">
                        <circle cx="314.684" cy="657.122" r="7.607" style="fill:rgb(49,57,75);"/>
                    </g>
                    <g transform="matrix(-0.27906,-1.29958,1.29958,-0.27906,29.2167,920.122)">
                        <circle cx="314.684" cy="657.122" r="7.607" style="fill:rgb(49,57,75);"/>
                    </g>
                    <g transform="matrix(-0.27906,-1.29958,1.29958,-0.27906,69.1794,1080.72)">
                        <circle cx="314.684" cy="657.122" r="7.607" style="fill:rgb(49,57,75);"/>
                    </g>
                    <g transform="matrix(0.577969,0,0,0.577969,-13.8431,260.283)">
                        <circle cx="314.684" cy="657.122" r="7.607" style="fill:rgb(49,57,75);"/>
                    </g>
                    <g transform="matrix(-0.577969,0,0,-0.577969,912.138,527.416)">
                        <circle cx="314.684" cy="657.122" r="7.607" style="fill:rgb(49,57,75);"/>
                    </g>
                    <g transform="matrix(0.121342,0.565088,-0.565088,0.121342,466.946,-41.7186)">
                        <circle cx="314.684" cy="657.122" r="7.607" style="fill:rgb(49,57,75);"/>
                    </g>
                    <g transform="matrix(-0.121342,-0.565088,0.565088,-0.121342,431.349,829.417)">
                        <circle cx="314.684" cy="657.122" r="7.607" style="fill:rgb(49,57,75);"/>
                    </g>
                    <g transform="matrix(0.69248,0,0,0.69248,77.641,134.86)">
                        <circle cx="314.684" cy="657.122" r="7.607" style="fill:rgb(49,57,75);"/>
                    </g>
                    <g transform="matrix(-0.69248,0,0,-0.69248,820.654,652.839)">
                        <circle cx="314.684" cy="657.122" r="7.607" style="fill:rgb(49,57,75);"/>
                    </g>
                    <g transform="matrix(-0.69248,0,-7.68807e-17,-0.69248,706.068,911.486)">
                        <circle cx="314.684" cy="657.122" r="7.607" style="fill:rgb(49,57,75);"/>
                    </g>
                    <g transform="matrix(0.145383,0.677046,-0.677046,0.145383,608.781,21.3945)">
                        <circle cx="314.684" cy="657.122" r="7.607" style="fill:rgb(49,57,75);"/>
                    </g>
                    <g transform="matrix(-0.145383,-0.677046,0.677046,-0.145383,289.515,766.304)">
                        <circle cx="314.684" cy="657.122" r="7.607" style="fill:rgb(49,57,75);"/>
                    </g>
                    <g transform="matrix(0.577969,0,0,0.577969,-15.4443,180.039)">
                        <circle cx="314.684" cy="657.122" r="7.607" style="fill:rgb(49,57,75);"/>
                    </g>
                    <g transform="matrix(-0.577969,0,0,-0.577969,913.74,607.659)">
                        <circle cx="314.684" cy="657.122" r="7.607" style="fill:rgb(49,57,75);"/>
                    </g>
                    <g transform="matrix(0.121342,0.565088,-0.565088,0.121342,545.065,-60.1309)">
                        <circle cx="314.684" cy="657.122" r="7.607" style="fill:rgb(49,57,75);"/>
                    </g>
                    <g transform="matrix(-0.121342,-0.565088,0.565088,-0.121342,353.231,847.83)">
                        <circle cx="314.684" cy="657.122" r="7.607" style="fill:rgb(49,57,75);"/>
                    </g>
                    <g transform="matrix(-0.572547,0.0789809,0.0789809,0.572547,621.446,-386.832)">
                        <circle cx="314.684" cy="657.122" r="7.607" style="fill:rgb(49,57,75);"/>
                    </g>
                    <g transform="matrix(-0.572547,0.0789809,0.0789809,0.572547,116.701,253.621)">
                        <circle cx="314.684" cy="657.122" r="7.607" style="fill:rgb(49,57,75);"/>
                    </g>
                    <g transform="matrix(0.902965,0,0,0.902965,9.80342,-83.6987)">
                        <circle cx="314.684" cy="657.122" r="7.607" style="fill:rgb(49,57,75);"/>
                    </g>
                    <g transform="matrix(-0.902965,0,0,-0.902965,888.492,871.397)">
                        <circle cx="314.684" cy="657.122" r="7.607" style="fill:rgb(49,57,75);"/>
                    </g>
                    <g transform="matrix(-0.308438,-0.848653,-0.848653,0.308438,826.433,108.184)">
                        <circle cx="314.684" cy="657.122" r="7.607" style="fill:rgb(49,57,75);"/>
                    </g>
                    <g transform="matrix(0.189574,0.882841,-0.882841,0.189574,808.226,-90.8166)">
                        <circle cx="314.684" cy="657.122" r="7.607" style="fill:rgb(49,57,75);"/>
                    </g>
                    <g transform="matrix(-0.189574,-0.882841,0.882841,-0.189574,90.0696,878.515)">
                        <circle cx="314.684" cy="657.122" r="7.607" style="fill:rgb(49,57,75);"/>
                    </g>
                    <g transform="matrix(-0.189574,-0.882841,0.882841,-0.189574,420.673,937.432)">
                        <circle cx="314.684" cy="657.122" r="7.607" style="fill:rgb(49,57,75);"/>
                    </g>
                    <g transform="matrix(-0.894495,0.123392,0.123392,0.894495,560.395,-644.646)">
                        <circle cx="314.684" cy="657.122" r="7.607" style="fill:rgb(49,57,75);"/>
                    </g>
                    <g transform="matrix(-0.894495,0.123392,0.123392,0.894495,55.65,-4.19313)">
                        <circle cx="314.684" cy="657.122" r="7.607" style="fill:rgb(49,57,75);"/>
                    </g>
                    <g transform="matrix(-0.189574,-0.882841,0.882841,-0.189574,-14.3532,945.399)">
                        <circle cx="314.684" cy="657.122" r="7.607" style="fill:rgb(49,57,75);"/>
                    </g>
                    <g transform="matrix(-0.894495,0.123392,0.123392,0.894495,587.586,-765.634)">
                        <circle cx="314.684" cy="657.122" r="7.607" style="fill:rgb(49,57,75);"/>
                    </g>
                    <g transform="matrix(-0.894495,0.123392,0.123392,0.894495,82.8412,-125.181)">
                        <circle cx="314.684" cy="657.122" r="7.607" style="fill:rgb(49,57,75);"/>
                    </g>
                    <g transform="matrix(-0.189574,-0.882841,0.882841,-0.189574,-478.985,796.075)">
                        <circle cx="314.684" cy="657.122" r="7.607" style="fill:rgb(49,57,75);"/>
                    </g>
                    <g transform="matrix(-0.189574,-0.882841,0.882841,-0.189574,-503.662,970.149)">
                        <circle cx="314.684" cy="657.122" r="7.607" style="fill:rgb(49,57,75);"/>
                    </g>
                    <g transform="matrix(-0.197425,-0.543205,-0.543205,0.197425,587.182,222.001)">
                        <circle cx="314.684" cy="657.122" r="7.607" style="fill:rgb(49,57,75);"/>
                    </g>
                    <g transform="matrix(0.121342,0.565088,-0.565088,0.121342,1306.06,207.454)">
                        <circle cx="314.684" cy="657.122" r="7.607" style="fill:rgb(49,57,75);"/>
                    </g>
                    <g transform="matrix(0.27906,1.29958,-1.29958,0.27906,1651.36,-183.401)">
                        <circle cx="314.684" cy="657.122" r="7.607" style="fill:rgb(49,57,75);"/>
                    </g>
                    <g transform="matrix(0.27906,1.29958,-1.29958,0.27906,1618.03,-2.09942)">
                        <circle cx="314.684" cy="657.122" r="7.607" style="fill:rgb(49,57,75);"/>
                    </g>
                    <g transform="matrix(0.27906,1.29958,-1.29958,0.27906,1657.81,-273.895)">
                        <circle cx="314.684" cy="657.122" r="7.607" style="fill:rgb(49,57,75);"/>
                    </g>
                </g>
                <g transform="matrix(1.34039,-0.652117,0.437485,0.899226,840.852,-397.034)">
                    <path d="M-805.305,1040.63L-805.627,952.09C-726.653,912.46 -662.691,952.297 -620.501,938.531C-558.929,918.44 -524.214,862.046 -461.338,864.228C-398.462,866.411 -393.582,877.328 -343.038,835.009C-292.493,792.689 -246.038,776.562 -168.953,815.132L-168.953,1040.63L-805.305,1040.63Z" style="fill:rgb(210,141,181);"/>
                </g>
                <g transform="matrix(1.1889,-0.578414,0.437485,0.899226,816.462,-303.693)">
                    <path d="M-805.305,1040.63L-805.627,952.09C-726.653,912.46 -662.691,952.297 -620.501,938.531C-558.929,918.44 -524.214,862.046 -461.338,864.228C-398.462,866.411 -393.582,877.328 -343.038,835.009C-292.493,792.689 -246.038,776.562 -168.953,815.132L-168.953,1040.63L-805.305,1040.63Z" style="fill:rgb(157,136,199);"/>
                </g>
                <g transform="matrix(0.959503,-0.466811,0.437485,0.899226,777.705,-206.964)">
                    <path d="M-805.305,1040.63L-805.627,952.09C-726.653,912.46 -662.691,952.297 -620.501,938.531C-558.929,918.44 -524.214,862.046 -461.338,864.228C-398.462,866.411 -393.582,877.328 -343.038,835.009C-292.493,792.689 -246.038,776.562 -168.953,815.132L-168.953,1040.63L-805.305,1040.63Z" style="fill:rgb(184,163,221);"/>
                </g>
                <g transform="matrix(0.89363,-0.448805,0.448805,0.89363,719.107,-191.856)">
                    <path d="M-680.953,992.259C-680.953,992.259 -658.057,970.251 -587.756,976.388C-517.455,982.524 -530.221,952.649 -441.922,949.15C-353.623,945.65 -304.841,873.954 -190.373,885.93C-164.279,888.66 -168.953,889.77 -168.953,889.77L-168.953,1048.47L-680.953,1048.47L-680.953,992.259Z" style="fill:rgb(165,212,223);"/>
                </g>
                <g transform="matrix(0.959503,-0.466811,0.437485,0.899226,856.407,-94.8974)">
                    <path d="M-805.305,1040.63L-805.627,952.09C-726.653,912.46 -662.691,952.297 -620.501,938.531C-558.929,918.44 -524.214,862.046 -461.338,864.228C-398.462,866.411 -393.582,877.328 -343.038,835.009C-292.493,792.689 -246.038,776.562 -168.953,815.132L-168.953,1040.63L-805.305,1040.63Z" style="fill:rgb(137,192,203);"/>
                </g>
                <g transform="matrix(1.04338,0,0,1.04338,-1186.33,495.575)">
                    <path d="M1463.84,-63.751C1457.64,-66.922 1435.46,-72.535 1356.79,-75.511C1356.79,-75.511 1434.29,-78.702 1464.32,-92.014C1456.24,-108.961 1430.31,-137.182 1430.31,-137.182C1430.31,-137.182 1465.07,-107.994 1476.36,-102.981C1477.26,-103.562 1478.18,-104.1 1479.13,-104.593C1482.12,-111.884 1490.56,-140.192 1494.07,-232.858C1494.07,-232.858 1495.38,-136.253 1508.38,-104.91C1509.29,-104.458 1510.19,-103.964 1511.06,-103.431C1522.48,-108.601 1556.99,-137.576 1556.99,-137.576C1556.99,-137.576 1530.04,-108.245 1522.52,-91.432C1522.67,-91.168 1522.81,-90.902 1522.95,-90.634C1553.14,-77.462 1630.27,-76.139 1630.27,-76.139C1555.13,-73.296 1531.52,-67.21 1524.15,-63.414C1523.73,-62.366 1523.24,-61.345 1522.71,-60.355C1530.47,-43.479 1556.99,-14.624 1556.99,-14.624C1556.99,-14.624 1523.79,-42.496 1511.74,-48.445C1510.74,-47.792 1509.69,-47.193 1508.62,-46.653C1495.34,-16.086 1494.01,82.004 1494.01,82.004C1490.35,-14.513 1481.35,-41.211 1478.72,-47.064C1477.68,-47.625 1476.67,-48.241 1475.7,-48.908C1463.77,-43.11 1430.31,-15.019 1430.31,-15.019C1430.31,-15.019 1457.52,-44.633 1464.88,-61.405C1464.5,-62.171 1464.16,-62.953 1463.84,-63.751Z" style="fill:rgb(248,246,242);"/>
                </g>
                <g transform="matrix(1.07765,0,0,1.09772,-1457.37,517.582)">
                    <path d="M1862.28,-183.73C1862.07,-183.737 1861.95,-183.742 1861.95,-183.742C1861.95,-183.742 1862.07,-183.74 1862.28,-183.73ZM1896.5,-232.985C1896.51,-233.757 1896.52,-234.186 1896.52,-234.186C1896.52,-234.186 1896.52,-233.757 1896.5,-232.985ZM1931.17,-183.741C1931.19,-183.742 1931.2,-183.742 1931.2,-183.742C1931.2,-183.742 1931.19,-183.742 1931.17,-183.741ZM1896.36,-137.237C1896.43,-134.439 1896.41,-132.694 1896.41,-132.694C1896.41,-132.694 1896.35,-134.444 1896.36,-137.237ZM1862.28,-183.73C1864.78,-183.655 1881.33,-183.497 1887.67,-192.148L1887.68,-192.052C1887.71,-192.084 1887.74,-192.115 1887.77,-192.147L1887.67,-192.148L1887.64,-192.148C1895.4,-200.034 1896.38,-226.963 1896.5,-232.985C1896.45,-227.077 1896.65,-201.064 1903.84,-193.154C1904.3,-192.795 1904.74,-192.404 1905.14,-191.983C1905.15,-191.977 1905.16,-191.971 1905.17,-191.964L1905.16,-191.964C1905.16,-191.959 1905.17,-191.954 1905.17,-191.949L1905.18,-192.148C1911.88,-183.002 1930.29,-183.702 1931.17,-183.741C1930.33,-183.701 1913.56,-182.79 1904.73,-174.413L1904.73,-174.696C1904.65,-174.615 1904.56,-174.534 1904.47,-174.455L1904.73,-174.45C1897.32,-169.215 1896.4,-146.936 1896.36,-137.237C1896.12,-146.417 1894.88,-166.926 1888.52,-174.247C1887.84,-174.824 1887.22,-175.474 1886.68,-176.185C1878.11,-182.762 1864.52,-183.63 1862.28,-183.73Z" style="fill:rgb(94,143,149);"/>
                </g>
            </g>
        </g>
    </g>
</svg>
